<?xml version="1.0" encoding="UTF-8"?>
<svg id="Layer_1" data-name="Layer 1" xmlns="http://www.w3.org/2000/svg" viewBox="0 0 1272.88 302.87">
  <defs>
    <style>
      .cls-1 {
        fill: #f7f402;
      }

      .cls-1, .cls-2, .cls-3, .cls-4 {
        stroke-width: 0px;
      }

      .cls-2 {
        fill: #262626;
      }

      .cls-3 {
        fill: #27242b;
      }

      .cls-4 {
        fill: #fff;
      }
    </style>
  </defs>
  <path class="cls-4" d="M1223.37,302.87H48.49c-7.37-1.58-15.02-1.92-21.62-6.44-14.85-10.19-23.7-23.89-25.99-41.86C.02,247.76,0,240.96,0,234.14c0-58.1-.02-116.2.01-174.31,0-15.23,3.46-29.39,13.47-41.36C21.65,8.7,31.33,1.59,44.65.79c1.59-.09,3.34.13,4.84-.79h1173.87c1.32.95,2.95.68,4.35.73,24.57.76,42.07,27.61,44.11,45.65.8,7.13,1.07,14.25,1.06,21.41-.04,58.75,0,117.51-.04,176.26-.01,14-3.27,27.05-11.95,38.37-8.78,11.43-19.82,18.96-34.64,19.93-.98.06-2.01-.18-2.88.52Z"/>
  <path class="cls-2" d="M154.59,17.08c1.83-.04,3.66-.12,5.49-.12,350.12,0,700.24.01,1050.36-.08,13.05,0,24.29,3.46,33.12,13.34,6.51,7.28,9.49,15.96,9.49,25.64.03,63.8.16,127.61-.06,191.41-.08,22.58-16.48,38.34-39.14,38.63-1.83.02-3.67.01-5.5.01-349.12,0-698.24,0-1047.36,0-2.17,0-4.33-.07-6.5-.1-2.01-.61-2.14-2.35-2.34-4-.17-1.49-.16-2.99-.16-4.49-.02-83.7-.03-167.41.03-251.11,0-3.23-.67-6.76,2.57-9.12Z"/>
  <path class="cls-1" d="M154.59,17.08c-.02,78.92-.04,157.84-.07,236.76,0,10.66-.02,21.31-.03,31.97-1.61,1.14-3.48.99-5.3.99-30.27,0-60.53.2-90.8-.07-22.08-.19-38.28-15.96-39.76-37.97.62-1.44.34-2.96.34-4.44.02-61.92.02-123.85,0-185.77,0-1.48.28-3-.34-4.44,1.53-22.22,16.94-37.07,39-37.13,32.32-.1,64.64.06,96.96.11Z"/>
  <path class="cls-4" d="M226.23,106.89c17.56-23.72,58.97-22.52,68,4.13.28-.16.73-.25.82-.49,7.56-19.35,31.01-23.01,46.16-18.93,14.14,3.81,22.7,15.76,23.15,33.57.47,18.81.22,37.64.25,56.46.03,14.99-.09,29.98.08,44.97.04,3.44-.88,4.64-4.45,4.55-8.66-.24-17.33-.28-25.99.01-3.97.13-5-1.11-4.98-5.02.16-28.98.09-57.96.08-86.94,0-2.5.04-5.01-.25-7.48-1-8.55-4.29-12.63-10.76-13.64-8.19-1.27-15.36,2.3-18.69,9.35-2.5,5.28-2.66,10.95-2.67,16.62-.02,27.48-.12,54.97.08,82.45.04,4.83-.91,6.79-6.25,6.45-8.13-.52-16.33-.38-24.48-.04-4.15.17-4.91-1.36-4.89-5.11.14-29.48.08-58.96.07-88.44,0-2.33.04-4.67-.11-6.99-.51-8.24-3.88-12.9-10.16-14.19-7.74-1.59-15.21,1.68-18.79,8.23-2.73,4.99-3.15,10.44-3.15,15.98.02,28.15-.11,56.3.12,84.44.04,4.78-1.11,6.35-6.02,6.09-8.14-.43-16.33-.35-24.48-.02-4.21.17-5.29-1.19-5.27-5.31.15-36.64.09-73.29.09-109.93,0-6.66.1-13.33-.04-19.99-.06-2.78.85-3.8,3.72-3.75,8.33.15,16.66.19,24.99-.01,3.22-.08,4.04,1.2,3.86,4.11-.18,2.94-.04,5.9-.04,8.86Z"/>
  <path class="cls-4" d="M551.67,217.73c0,2.94-.26,5.92.06,8.83.44,4-1.4,4.69-4.91,4.59-7.66-.22-15.34-.29-22.99.02-4.09.16-5.4-.96-5.35-5.22.22-21.32.1-42.65.1-63.97,0-35.82.1-71.63-.12-107.45-.03-4.97,1.47-6.19,6.18-5.98,8.32.37,16.66.24,24.99.04,3.46-.08,4.61,1.04,4.57,4.54-.15,15.66-.09,31.32-.03,46.98,0,1.73-.58,3.6,1.43,6.35.34-.98.44-1.68.79-2.23,14.07-22.31,54.28-18.23,63.45,10.26,3.46,10.74,5.45,21.61,6.07,32.77,1.09,19.68,1.09,39.33-4.49,58.48-6.8,23.35-23.68,33.25-47.49,28.04-7.49-1.64-13.21-6.11-17.87-12.04-1.11-1.42-2.16-2.88-3.24-4.33-.38.11-.77.21-1.15.32Z"/>
  <path class="cls-4" d="M1050.5,217.67c-10.52,15.1-24.5,19.53-41.55,16.41-12.87-2.35-20.78-10.52-25.63-22.13-6.15-14.75-7.13-30.37-7.3-46.06-.18-16.35.3-32.68,5.45-48.42,7.31-22.32,27.68-32.89,48.88-25.55,5.68,1.97,10.22,5.49,14.14,9.92,1.17,1.32,2.31,2.66,3.57,4.12,1.6-2.09,1-3.99,1.01-5.73.05-15.16.3-30.33-.11-45.47-.14-5.32,1.63-6.44,6.47-6.2,7.65.38,15.34.39,22.99,0,4.73-.24,6.13,1.01,6.11,5.96-.2,53.81-.12,107.61-.12,161.42,0,4-.1,8,.03,11.99.08,2.38-.81,3.21-3.17,3.19-9.16-.09-18.33-.11-27.49,0-2.76.04-3.41-1.18-3.31-3.62.14-3.27.03-6.55.03-9.82Z"/>
  <path class="cls-4" d="M386.36,162.3c-.17-11.68.74-24.1,4.08-36.25,5.91-21.46,19.17-32.75,41.36-35.34,9.01-1.05,17.94-.78,26.84,1.02,16.02,3.23,26.81,12.75,31.35,28.2,7.86,26.77,7.91,53.95.76,80.87-5.56,20.92-20.14,31.88-41.47,33.86-8.3.77-16.65.72-24.9-.84-16.57-3.13-27.46-12.78-32.75-28.73-4.51-13.61-5.35-27.72-5.27-42.77Z"/>
  <path class="cls-4" d="M1178.47,167.96c-10.49,0-20.99-.01-31.48.02-1.72,0-3.95-.56-3.96,2.35-.04,10.48-.59,21.04,4,30.91,2.53,5.42,6.26,9.4,12.74,9.78,7.77.45,12.6-2.48,15.74-9.65,1.75-4,2.68-8.22,3.03-12.55.22-2.78,1.23-4.02,4.33-3.94,8.32.22,16.65.14,24.98.04,2.41-.03,3.75.38,3.44,3.27-1.04,9.67-2.88,19.09-8.1,27.51-6.27,10.12-15.69,15.66-27.09,17.91-10.9,2.15-21.85,2.01-32.71-.6-15.74-3.78-26.61-13.31-30.87-28.83-7.33-26.66-7.55-53.74-.35-80.4,5.84-21.62,21-31.91,45.97-33.57,6.18-.41,12.33.03,18.41,1.14,18.79,3.42,29.1,15.5,33.64,33.32,3.36,13.19,3.48,26.68,3.52,40.18,0,2.9-1.48,3.15-3.75,3.14-10.49-.06-20.99-.03-31.48-.02Z"/>
  <path class="cls-4" d="M850.25,167.17c-10.16,0-20.33.17-30.49-.08-3.84-.09-4.84,1.23-4.75,4.88.23,9.16-.15,18.37,3.46,27.07,2.18,5.25,5.27,9.72,11.35,10.93,8.26,1.64,14.36-1.59,17.76-9.33,1.76-4,2.65-8.23,3.04-12.56.24-2.7,1.15-4.13,4.3-4.05,8.33.21,16.66.18,24.99.02,3.03-.06,3.67,1.16,3.4,3.87-2.25,23.17-11.76,44.93-46.07,46.15-6.85.24-13.67.06-20.38-1.43-17.85-3.97-29.28-14.97-33.34-32.62-5.79-25.16-6.11-50.62.26-75.7,5.35-21.05,20.44-32.68,42.1-34.44,7.51-.61,14.96-.64,22.4.67,16.51,2.9,27.14,12.49,32.41,28.28,4.94,14.79,5.02,30.12,5.09,45.45.01,3.11-1.99,2.9-4.03,2.9-10.5,0-21,0-31.49,0Z"/>
  <path class="cls-4" d="M756.47,140.44c0,28.79-.09,57.58.1,86.36.03,4.14-1.03,5.4-5.22,5.24-8.48-.33-16.98-.28-25.46-.02-3.71.12-4.81-.93-4.78-4.7.17-23.46.08-46.92.08-70.39,0-34.28.08-68.56-.1-102.84-.02-4.36,1.07-5.78,5.53-5.59,8.31.36,16.65.3,24.96.02,3.97-.14,5,1.16,4.97,5.05-.16,28.95-.09,57.91-.09,86.86Z"/>
  <path class="cls-4" d="M653.4,162.42c0-21.32.07-42.63-.07-63.95-.02-3.36.72-4.66,4.36-4.56,8.99.26,17.99.19,26.99.03,2.97-.05,4.07.75,4.07,3.89-.08,43.47-.07,86.93-.01,130.4,0,2.74-.74,3.82-3.66,3.77-9.33-.16-18.66-.26-27.98.04-3.98.13-3.72-2.03-3.71-4.66.03-21.65.02-43.3.02-64.95Z"/>
  <path class="cls-1" d="M949.6,212.41c0,5.32-.05,10.64.01,15.96.03,2.48-.94,3.59-3.53,3.57-10.81-.07-21.62-.06-32.43-.01-2.35.01-3.23-1.01-3.22-3.3.05-11.14.05-22.28,0-33.42,0-2.28.85-3.31,3.21-3.3,10.81.05,21.62.09,32.43-.02,3.05-.03,3.58,1.56,3.56,4.06-.06,5.49-.02,10.97-.02,16.46Z"/>
  <path class="cls-4" d="M670.98,46.16c4.67,0,9.34.13,13.99-.05,2.85-.11,3.8.97,3.75,3.76-.13,7.99-.1,15.99-.02,23.98.02,2.34-.81,3.22-3.19,3.2-9.66-.09-19.33-.09-28.99,0-2.37.02-3.2-.79-3.17-3.16.1-8.16.13-16.32,0-24.48-.05-2.81,1.23-3.34,3.63-3.28,4.66.11,9.33.03,14,.03Z"/>
  <path class="cls-2" d="M591.1,162.64c-.51,10.49-.04,20.87-2.69,30.96-1.38,5.25-3.42,10.17-8.62,12.84-8.44,4.34-18.93.84-21.5-8.64-6.34-23.34-6.2-47.03-.05-70.43,1.87-7.1,7.48-10.27,14.31-10.27,7.07,0,12,3.43,14.66,10.68,4.15,11.35,3.29,23.29,3.9,34.86Z"/>
  <path class="cls-3" d="M1011.37,163.6c-.05-10.59.09-20.24,1.99-29.77.62-3.12,1.57-6.12,3.08-8.92,2.9-5.37,7.56-7.84,13.52-7.78,5.98.05,10.59,2.66,13.31,8.11,3.51,7.03,4.02,14.67,4.51,22.33.9,14.15.82,28.27-1.33,42.32-.48,3.14-1.35,6.17-2.68,9.06-2.79,6.06-7.42,9.1-14.19,9.06-6.81-.05-11.32-3.33-13.98-9.38-1.89-4.3-2.74-8.87-3.26-13.52-.85-7.46-1.08-14.94-.97-21.5Z"/>
  <path class="cls-2" d="M421.71,161.94c.18-11.3-.2-22.68,2.82-33.72,1.79-6.53,4.96-11.99,12.32-13.69,7.79-1.8,14.32,1.09,17.95,8.2,2.46,4.81,3.53,10.04,4.05,15.36,1.85,18.95,2.28,37.87-1.35,56.69-.57,2.96-1.59,5.77-3.06,8.4-5.95,10.62-20.87,10.85-27.15.39-3.25-5.42-4.13-11.55-4.76-17.68-.43-4.14-.64-8.3-.78-12.46-.13-3.82-.03-7.66-.03-11.49Z"/>
  <path class="cls-3" d="M1160.97,147.11c-4.83,0-9.65-.04-14.48.02-2.07.03-3.57-.28-3.52-2.9.13-6.83.2-13.65,3.18-20.03,3.34-7.16,9.13-10.67,16.73-10.12,7.22.52,11.79,4.39,14.07,12.09,1.72,5.79,1.81,11.8,2.18,17.78.15,2.42-.87,3.23-3.19,3.19-4.99-.09-9.98-.03-14.98-.03Z"/>
  <path class="cls-2" d="M832.93,146.35c-4.82,0-9.64-.05-14.46.02-2.18.03-3.42-.58-3.4-3.07.07-7.01.24-13.98,3.42-20.45,3.24-6.6,9.02-10.01,16.09-9.55,7.45.48,11.95,4.13,14.32,11.73,1.8,5.77,1.87,11.77,2.32,17.73.23,3.03-1.22,3.69-3.83,3.63-4.82-.1-9.64-.03-14.46-.03Z"/>
</svg>